<?xml version="1.0" encoding="utf-8"?>
<!-- Generator: Adobe Illustrator 22.0.0, SVG Export Plug-In . SVG Version: 6.00 Build 0)  -->
<svg version="1.1" id="Layer_1" xmlns="http://www.w3.org/2000/svg" xmlns:xlink="http://www.w3.org/1999/xlink" x="0px" y="0px"
	 viewBox="0 0 800 800" style="enable-background:new 0 0 800 800;" xml:space="preserve">
<style type="text/css">
	.st0{fill:#ED8647;}
</style>
<g>
	<path class="st0" d="M436,708.6c48.4-39.5,75-87.9,75-148.8c0-60.8-26.9-108.9-73.7-147.4c49-18.6,125.8,5.8,162.3,58.7
		c36,52.1,37.5,120.8,3.1,173.9C569.2,696.8,497.6,727.6,436,708.6z"/>
	<path class="st0" d="M98.8,378.6C184,499.5,256,516,387.6,445c7.3,52.3-32.2,115.3-88.4,141c-60.9,27.9-135.7,12.2-179-37.6
		C78,499.9,68.7,425.9,98.8,378.6z"/>
	<path class="st0" d="M396.1,371.3c-30.9-53.7-21.1-124.5,22.6-173.1C462,150.2,535.2,135,595,161.7c56.8,25.3,95.8,87.2,89.6,143.8
		c-47.8-36.5-100.3-53.1-159.8-39.4C465.5,279.8,423.7,315.6,396.1,371.3z"/>
	<path class="st0" d="M659.1,564.6c-2.7-131-119.6-211.4-232.2-183c17.1-51.4,81-92.4,141.4-90.8c68.5,1.9,129.7,50.1,146.1,115.2
		C729.5,466.2,705.2,537.2,659.1,564.6z"/>
	<path class="st0" d="M188.4,624.9c116.1,25.8,226.5-49.9,233.4-182.8c44.3,25.2,68.9,94.7,55,155.2
		c-14.4,62.6-72.5,112.4-136.7,117.1C274.4,719.2,210.6,681.6,188.4,624.9z"/>
	<path class="st0" d="M496.1,121.3c-123.5,30.4-181.9,155.1-128,265.7c-50.7-1.6-104.2-53.7-118.6-115.4
		C234,205.5,267,134.5,327.7,102.9C384.5,73.4,460,81.6,496.1,121.3z"/>
	<path class="st0" d="M236.3,154.4c-25.1,56.4-27.9,111.5-1,166.2c26.5,53.9,71.2,85.3,129.3,99.9c-41.6,40-116.5,47.1-170.8,17.3
		c-57.7-31.6-90.7-99.7-77.9-160.7C129.6,211.4,179.2,159.8,236.3,154.4z"/>
</g>
</svg>
