<?xml version="1.0" encoding="utf-8"?>
<!-- Generator: Adobe Illustrator 22.0.0, SVG Export Plug-In . SVG Version: 6.00 Build 0)  -->
<svg version="1.1" id="Layer_1" xmlns="http://www.w3.org/2000/svg" xmlns:xlink="http://www.w3.org/1999/xlink" x="0px" y="0px"
	 viewBox="0 0 800 800" style="enable-background:new 0 0 800 800;" xml:space="preserve">
<style type="text/css">
	.st0{fill:#ED8647;}
</style>
<path class="st0" d="M399.3,706.9C229.1,703.9,92.1,570.7,93.3,397C94.5,229.6,226.6,93.3,400.1,93.1
	C572.4,93,708.6,229.9,706.6,403.5C704.7,571.1,571.6,704.3,399.3,706.9z M401.3,590.8c47.5,0,95,0.3,142.6-0.3
	c10.4-0.1,21.3-2.3,31.2-5.6c12.2-4.1,18.5-13.1,19.1-27.2c1.1-29.9-13.5-52.7-32.5-72.8c-34.9-36.8-78.9-55.1-129-61.1
	c-61.6-7.3-118.1,4.5-168.4,41.5c-25.3,18.6-45,42-52.9,73.4c-7.5,29.7,1.8,44,32.3,50c5.8,1.1,11.8,2,17.7,2
	C308,590.8,354.7,590.8,401.3,590.8z M403,205.7c-49.3-4.9-97.7,42.9-97.1,95.5c0.5,45,34.2,98.9,97.1,98.4
	c56.1-0.4,95-45.4,95.7-98.4C499.3,245.1,449.9,201.4,403,205.7z"/>
</svg>
